<svg width="48" height="48" viewBox="0 0 48 48" fill="none" xmlns="http://www.w3.org/2000/svg">
<path fill-rule="evenodd" clip-rule="evenodd" d="M21.966 14.0208C20.8716 14.1025 19.853 14.3731 18.8671 14.8438C17.1311 15.6727 15.6727 17.131 14.8438 18.8671C13.4936 21.6951 13.7791 25.0179 15.5903 27.5564C16.7935 29.2427 18.5642 30.4387 20.5737 30.9226C21.5804 31.165 22.7334 31.2207 23.7759 31.0773C25.2675 30.8721 26.726 30.2446 27.9206 29.2942L28.0812 29.1664L30.4481 31.5282C33.0337 34.1082 32.8772 33.9659 33.1625 33.9958C33.6364 34.0453 34.0507 33.6248 33.995 33.1507C33.9626 32.8753 34.0949 33.0203 31.5278 30.4481L29.1656 28.0812L29.2618 27.9634C29.6394 27.5014 30.0566 26.8394 30.3209 26.2827C30.9198 25.0213 31.1818 23.7794 31.1481 22.3624C31.1152 20.9793 30.7859 19.7219 30.1457 18.5336C28.9157 16.251 26.7721 14.6648 24.2364 14.161C23.5245 14.0195 22.6803 13.9674 21.966 14.0208ZM21.9874 15.555C21.9344 15.5592 21.7801 15.5773 21.6447 15.5952C19.8355 15.8353 18.1978 16.7683 17.0475 18.2141C16.2745 19.1856 15.7723 20.3672 15.592 21.6389C15.5459 21.9645 15.528 22.8534 15.5604 23.2103C15.7743 25.564 17.1433 27.6441 19.2241 28.7766C21.5279 30.0306 24.3612 29.8891 26.539 28.4113C27.9663 27.4429 29.0009 25.9592 29.4206 24.2792C29.563 23.7089 29.6197 23.2233 29.6193 22.5764C29.6189 21.9072 29.5614 21.4334 29.4074 20.8329C29.1184 19.7051 28.5623 18.6815 27.7655 17.8105C26.6136 16.5516 25.0289 15.753 23.3228 15.572C23.0543 15.5435 22.2646 15.5335 21.9874 15.555Z" fill="#05546D"/>
</svg>
