<svg width="48" height="48" viewBox="0 0 48 48" fill="none" xmlns="http://www.w3.org/2000/svg">
<path fill-rule="evenodd" clip-rule="evenodd" d="M23.336 14.0213C21.6189 14.1358 19.9467 14.6963 18.5171 15.6366C17.3767 16.3868 16.3873 17.3763 15.6372 18.5169C15.029 19.4418 14.5487 20.5425 14.2892 21.6062C13.6284 24.3153 14.1173 27.1727 15.6372 29.4839C16.3868 30.6238 17.3786 31.6157 18.5171 32.3642C19.4429 32.9729 20.5427 33.4528 21.6061 33.7123C24.3142 34.373 27.171 33.8841 29.4828 32.3642C30.4376 31.7365 31.3102 30.9178 31.9934 30.0086C32.9267 28.7669 33.5689 27.2985 33.8389 25.7889C34.2147 23.6879 33.9259 21.5597 33.0074 19.6628C32.4957 18.6059 31.8922 17.7562 31.0678 16.9317C29.9166 15.7803 28.5713 14.9623 27.0042 14.4606C25.8637 14.0955 24.5618 13.9396 23.336 14.0213ZM23.3467 15.5529C20.7725 15.7557 18.4062 17.1387 16.9698 19.2801C16.2296 20.3836 15.7761 21.5973 15.5904 22.9722C15.5341 23.3892 15.5341 24.6116 15.5904 25.0285C15.727 26.0398 15.9726 26.8543 16.4072 27.7381C16.6267 28.1845 16.8085 28.4958 17.0527 28.8437C17.2425 29.114 17.5208 29.4638 17.6953 29.651L17.8211 29.7861L17.9028 29.6832C18.0877 29.4506 18.4772 29.0384 18.6986 28.841C20.0044 27.6772 21.5325 26.9991 23.2396 26.8261C23.5705 26.7925 24.4294 26.7925 24.7603 26.8261C26.2813 26.9803 27.7015 27.5545 28.8964 28.4984C29.3106 28.8256 29.7969 29.3055 30.097 29.6832L30.1788 29.7861L30.3046 29.651C31.1403 28.7538 31.8393 27.4605 32.1896 26.1638C32.2631 25.8913 32.3616 25.3832 32.4095 25.0285C32.441 24.7956 32.4486 24.5956 32.4486 24.0004C32.4486 23.1941 32.4313 22.9937 32.3075 22.3617C32.16 21.6094 31.9463 20.9816 31.5927 20.2626C31.1643 19.3915 30.6706 18.7016 29.9843 18.0153C29.2981 17.3289 28.6083 16.8351 27.7373 16.4067C26.8688 15.9796 26.0867 15.7403 25.1029 15.6007C24.8677 15.5673 24.6578 15.5567 24.1284 15.5513C23.7574 15.5475 23.4056 15.5483 23.3467 15.5529ZM23.4642 17.5849C21.4294 17.8317 19.8339 19.5202 19.6964 21.5725C19.5926 23.121 20.3118 24.5899 21.5969 25.4541C22.1089 25.7984 22.6819 26.0242 23.3253 26.1354C23.6249 26.1871 24.375 26.1871 24.6746 26.1354C25.3151 26.0247 25.8932 25.7969 26.4029 25.4541C27.5134 24.7073 28.2145 23.4943 28.3035 22.1657C28.4074 20.6151 27.6886 19.1487 26.3999 18.2821C25.5501 17.7106 24.4947 17.46 23.4642 17.5849ZM23.774 19.0965C22.4881 19.198 21.4481 20.1714 21.2466 21.4621C21.1624 22.0012 21.2532 22.5762 21.5038 23.0911C21.9336 23.9741 22.7976 24.5638 23.7731 24.6399C25.2423 24.7546 26.5144 23.7456 26.7526 22.2767C26.8389 21.7452 26.7471 21.1629 26.496 20.647C25.995 19.6176 24.9212 19.006 23.774 19.0965ZM23.3146 28.3595C22.5292 28.4471 21.8889 28.6366 21.1767 28.9925C20.7851 29.1882 20.4974 29.3659 20.1527 29.6248C19.6999 29.9649 18.934 30.7571 18.9912 30.8261C19.0047 30.8424 19.1517 30.9456 19.3179 31.0555C20.2596 31.678 21.2738 32.0957 22.3615 32.3089C22.9934 32.4328 23.1938 32.45 23.9999 32.45C24.8061 32.45 25.0065 32.4328 25.6384 32.3089C26.5137 32.1373 27.3988 31.8095 28.1825 31.3667C28.4049 31.241 28.9718 30.8706 29.0075 30.8275C29.065 30.7582 28.3052 29.9704 27.8499 29.6273C27.4852 29.3526 27.208 29.1835 26.7735 28.9711C26.0306 28.6079 25.3979 28.4283 24.5813 28.3488C24.2846 28.3199 23.6193 28.3255 23.3146 28.3595Z" fill="white"/>
</svg>
